<mxfile host="app.diagrams.net" modified="2020-08-26T21:50:17.878Z" agent="5.0 (Macintosh; Intel Mac OS X 10_15_6) AppleWebKit/537.36 (KHTML, like Gecko) Chrome/84.0.4147.135 Safari/537.36" etag="lg_25maSz2BmSK_hsChr" version="13.6.5" type="github">
  <diagram id="R2lEEEUBdFMjLlhIrx00" name="Page-1">
    <mxGraphModel dx="1184" dy="741" grid="1" gridSize="10" guides="1" tooltips="1" connect="1" arrows="1" fold="1" page="1" pageScale="1" pageWidth="850" pageHeight="1100" math="0" shadow="0" extFonts="Permanent Marker^https://fonts.googleapis.com/css?family=Permanent+Marker">
      <root>
        <mxCell id="0" />
        <mxCell id="1" parent="0" />
        <mxCell id="sg8UIlXDy95VCHJpMV4Q-3" value="Videos" style="swimlane;childLayout=stackLayout;horizontal=1;startSize=30;horizontalStack=0;rounded=1;fontSize=14;fontStyle=0;strokeWidth=2;resizeParent=0;resizeLast=1;shadow=0;dashed=0;align=center;fillColor=#FFE599;" vertex="1" parent="1">
          <mxGeometry x="60" y="290" width="160" height="180" as="geometry" />
        </mxCell>
        <mxCell id="sg8UIlXDy95VCHJpMV4Q-4" value="+useId&#xa;+videoUrl&#xa;+title&#xa;+description&#xa;+buttonText&#xa;+buttonUrl&#xa;+showButton&#xa;+createdDate&#xa;+isPublic" style="align=left;strokeColor=none;fillColor=none;spacingLeft=4;fontSize=12;verticalAlign=top;resizable=0;rotatable=0;part=1;" vertex="1" parent="sg8UIlXDy95VCHJpMV4Q-3">
          <mxGeometry y="30" width="160" height="150" as="geometry" />
        </mxCell>
        <mxCell id="sg8UIlXDy95VCHJpMV4Q-1" value="Users" style="swimlane;childLayout=stackLayout;horizontal=1;startSize=30;horizontalStack=0;rounded=1;fontSize=14;fontStyle=0;strokeWidth=2;resizeParent=0;resizeLast=1;shadow=0;dashed=0;align=center;fillColor=#FFE599;" vertex="1" parent="1">
          <mxGeometry x="60" y="30" width="160" height="180" as="geometry" />
        </mxCell>
        <mxCell id="sg8UIlXDy95VCHJpMV4Q-2" value="+useId&#xa;+firstName&#xa;+lastName&#xa;+email&#xa;+hashPassword&#xa;+orgId" style="align=left;strokeColor=none;fillColor=none;spacingLeft=4;fontSize=12;verticalAlign=top;resizable=0;rotatable=0;part=1;" vertex="1" parent="sg8UIlXDy95VCHJpMV4Q-1">
          <mxGeometry y="30" width="160" height="150" as="geometry" />
        </mxCell>
        <mxCell id="sg8UIlXDy95VCHJpMV4Q-5" value="Scripts" style="swimlane;childLayout=stackLayout;horizontal=1;startSize=30;horizontalStack=0;rounded=1;fontSize=14;fontStyle=0;strokeWidth=2;resizeParent=0;resizeLast=1;shadow=0;dashed=0;align=center;fillColor=#FFE599;" vertex="1" parent="1">
          <mxGeometry x="265" y="290" width="160" height="180" as="geometry" />
        </mxCell>
        <mxCell id="sg8UIlXDy95VCHJpMV4Q-6" value="+useId&#xa;+createdDate&#xa;+title&#xa;+content" style="align=left;strokeColor=none;fillColor=none;spacingLeft=4;fontSize=12;verticalAlign=top;resizable=0;rotatable=0;part=1;" vertex="1" parent="sg8UIlXDy95VCHJpMV4Q-5">
          <mxGeometry y="30" width="160" height="150" as="geometry" />
        </mxCell>
        <mxCell id="sg8UIlXDy95VCHJpMV4Q-7" value="Organizations" style="swimlane;childLayout=stackLayout;horizontal=1;startSize=30;horizontalStack=0;rounded=1;fontSize=14;fontStyle=0;strokeWidth=2;resizeParent=0;resizeLast=1;shadow=0;dashed=0;align=center;fillColor=#FFE599;" vertex="1" parent="1">
          <mxGeometry x="430" y="30" width="160" height="180" as="geometry" />
        </mxCell>
        <mxCell id="sg8UIlXDy95VCHJpMV4Q-8" value="+orgId&#xa;+name&#xa;+admins[...userId]&#xa;+managers[...userId]&#xa;+users[...userId]" style="align=left;strokeColor=none;fillColor=none;spacingLeft=4;fontSize=12;verticalAlign=top;resizable=0;rotatable=0;part=1;" vertex="1" parent="sg8UIlXDy95VCHJpMV4Q-7">
          <mxGeometry y="30" width="160" height="150" as="geometry" />
        </mxCell>
        <mxCell id="sg8UIlXDy95VCHJpMV4Q-10" value="" style="endArrow=ERoneToMany;html=1;rounded=0;entryX=1;entryY=0.5;entryDx=0;entryDy=0;exitX=0;exitY=0.5;exitDx=0;exitDy=0;endFill=0;" edge="1" parent="1" source="sg8UIlXDy95VCHJpMV4Q-8" target="sg8UIlXDy95VCHJpMV4Q-2">
          <mxGeometry relative="1" as="geometry">
            <mxPoint x="340" y="290" as="sourcePoint" />
            <mxPoint x="500" y="290" as="targetPoint" />
          </mxGeometry>
        </mxCell>
        <mxCell id="sg8UIlXDy95VCHJpMV4Q-11" value="Team" style="swimlane;childLayout=stackLayout;horizontal=1;startSize=30;horizontalStack=0;rounded=1;fontSize=14;fontStyle=0;strokeWidth=2;resizeParent=0;resizeLast=1;shadow=0;dashed=0;align=center;fillColor=#FFE599;" vertex="1" parent="1">
          <mxGeometry x="540" y="290" width="160" height="180" as="geometry" />
        </mxCell>
        <mxCell id="sg8UIlXDy95VCHJpMV4Q-12" value="+useId&#xa;+createdDate&#xa;+title&#xa;+content" style="align=left;strokeColor=none;fillColor=none;spacingLeft=4;fontSize=12;verticalAlign=top;resizable=0;rotatable=0;part=1;" vertex="1" parent="sg8UIlXDy95VCHJpMV4Q-11">
          <mxGeometry y="30" width="160" height="150" as="geometry" />
        </mxCell>
      </root>
    </mxGraphModel>
  </diagram>
</mxfile>
